<?xml version="1.0" encoding="UTF-8" standalone="no"?>
<svg width="513px" height="1315px" viewBox="0 0 513 1315" version="1.1" xmlns="http://www.w3.org/2000/svg" xmlns:xlink="http://www.w3.org/1999/xlink" xmlns:sketch="http://www.bohemiancoding.com/sketch/ns">
    <title>happybirthday</title>
    <description>Created with Sketch (http://www.bohemiancoding.com/sketch)</description>
    <defs>
        <linearGradient x1="25.1070205%" y1="-42.9901541%" x2="72.5652825%" y2="138.564854%" id="linearGradient-1">
            <stop stop-color="#282BD8" offset="0%"></stop>
            <stop stop-color="#F8125F" offset="100%"></stop>
        </linearGradient>
        <filter x="-20%" y="-20%" width="140%" height="140%" filterUnits="objectBoundingBox" id="filter-2">
            <feGaussianBlur stdDeviation="12.9403409" in="SourceGraphic" result="blur"></feGaussianBlur>
        </filter>
        <filter x="-20%" y="-20%" width="140%" height="140%" filterUnits="objectBoundingBox" id="filter-3">
            <feMorphology radius="1" in="SourceAlpha" operator="dilate" result="shadowSpreadOuter1"></feMorphology>
            <feOffset dx="0" dy="0" in="shadowSpreadOuter1" result="shadowOffsetOuter1"></feOffset>
            <feGaussianBlur stdDeviation="7.5" in="shadowOffsetOuter1" result="shadowBlurOuter1"></feGaussianBlur>
            <feColorMatrix values="0 0 0 0 0.0296505181   0 0 0 0 0.0312565681   0 0 0 0 0.665062314  0 0 0 0.7 0" in="shadowBlurOuter1" type="matrix" result="shadowMatrixOuter1"></feColorMatrix>
            <feMerge>
                <feMergeNode in="shadowMatrixOuter1"></feMergeNode>
                <feMergeNode in="SourceGraphic"></feMergeNode>
            </feMerge>
        </filter>
        <filter x="-20%" y="-20%" width="140%" height="140%" filterUnits="objectBoundingBox" id="filter-4">
            <feMorphology radius="1" in="SourceAlpha" operator="dilate" result="shadowSpreadOuter1"></feMorphology>
            <feOffset dx="0" dy="0" in="shadowSpreadOuter1" result="shadowOffsetOuter1"></feOffset>
            <feGaussianBlur stdDeviation="7.5" in="shadowOffsetOuter1" result="shadowBlurOuter1"></feGaussianBlur>
            <feColorMatrix values="0 0 0 0 0.0296505181   0 0 0 0 0.0312565681   0 0 0 0 0.665062314  0 0 0 0.7 0" in="shadowBlurOuter1" type="matrix" result="shadowMatrixOuter1"></feColorMatrix>
            <feMerge>
                <feMergeNode in="shadowMatrixOuter1"></feMergeNode>
                <feMergeNode in="SourceGraphic"></feMergeNode>
            </feMerge>
        </filter>
        <filter x="-20%" y="-20%" width="140%" height="140%" filterUnits="objectBoundingBox" id="filter-5">
            <feMorphology radius="1" in="SourceAlpha" operator="dilate" result="shadowSpreadOuter1"></feMorphology>
            <feOffset dx="0" dy="0" in="shadowSpreadOuter1" result="shadowOffsetOuter1"></feOffset>
            <feGaussianBlur stdDeviation="7.5" in="shadowOffsetOuter1" result="shadowBlurOuter1"></feGaussianBlur>
            <feColorMatrix values="0 0 0 0 0.0296505181   0 0 0 0 0.0312565681   0 0 0 0 0.665062314  0 0 0 0.7 0" in="shadowBlurOuter1" type="matrix" result="shadowMatrixOuter1"></feColorMatrix>
            <feMerge>
                <feMergeNode in="shadowMatrixOuter1"></feMergeNode>
                <feMergeNode in="SourceGraphic"></feMergeNode>
            </feMerge>
        </filter>
    </defs>
    <g id="Page-1" stroke="none" stroke-width="1" fill="none" fill-rule="evenodd" sketch:type="MSPage">
        <circle d="M267.187527,254 C287.345921,254 303.687527,237.658394 303.687527,217.5 C303.687527,197.341606 287.345921,181 267.187527,181 C247.029132,181 230.687527,197.341606 230.687527,217.5 C230.687527,237.658394 247.029132,254 267.187527,254 Z M267.187527,254" id="Oval-2" fill="url(#linearGradient-1)" filter="url(#filter-2)" sketch:type="MSShapeGroup" cx="267.187527" cy="217.5" r="36.5"></circle>
        <circle d="M117,237 C181.617319,237 234,184.617319 234,120 C234,55.3826811 181.617319,3 117,3 C52.3826811,3 0,55.3826811 0,120 C0,184.617319 52.3826811,237 117,237 Z M117,237" id="Oval-1" fill="#B000BF" sketch:type="MSShapeGroup" cx="117" cy="120" r="117"></circle>
        <circle d="M409.5,99 C436.838096,99 459,76.8380965 459,49.5 C459,22.1619035 436.838096,0 409.5,0 C382.161904,0 360,22.1619035 360,49.5 C360,76.8380965 382.161904,99 409.5,99 Z M409.5,99" id="Oval-3" fill="#0969B6" sketch:type="MSShapeGroup" cx="409.5" cy="49.5" r="49.5"></circle>
        <text id="Happy-(late)-Birthda" fill="#FFFFFF" sketch:type="MSTextLayer" font-family="Helvetica" font-size="47" font-weight="normal">
            <tspan x="56" y="59">Happy </tspan>
            <tspan x="204.91748" y="59" font-size="9">(la</tspan>
            <tspan x="214.919434" y="59" font-size="9" fill="#000000">te)</tspan>
            <tspan x="225.422363" y="59" fill="#000000"> Birthd</tspan>
            <tspan x="361.258789" y="59">ay</tspan>
        </text>
        <path d="M356.810648,190.304062 C356.810648,182.38654 334.806577,162.590613 318.75346,192.615283 C302.700341,222.639953 328.343293,227.113967 348.587037,218.157456 C368.830781,209.200945 379.449661,232.762677 364.018349,238.941483 C348.587037,245.120289 324.743821,260.344662 310,237.011931" id="Path-1" stroke="#DC1010" stroke-width="5" filter="url(#filter-3)" sketch:type="MSShapeGroup"></path>
        <path d="M371.375054,180.676936 C371.375054,180.676936 386.172082,233.558764 398.084818,242.981869 C409.997553,252.404974 415,176.550781 415,176.550781" id="Path-2" stroke="#DC1010" stroke-width="5" filter="url(#filter-4)" sketch:type="MSShapeGroup"></path>
        <path d="M486.375,185.432937 C486.375,185.432937 458.242188,164.335282 436.753906,187.171219 C415.265625,210.007156 429.890625,237.745437 450.6875,237.745437 C471.484375,237.745438 503.039063,235.256828 494.707031,221.202469 C486.374999,207.148109 484.597656,195.932937 460.675781,205.225906" id="Path-3" stroke="#DC1010" stroke-width="5" filter="url(#filter-5)" sketch:type="MSShapeGroup"></path>
        <text id="In" fill="#FFFFFF" sketch:type="MSTextLayer" font-family="Helvetica" font-size="47" font-weight="normal">
            <tspan x="247.187527" y="229">In</tspan>
        </text>
        <text id="because" fill="#2E2E2E" sketch:type="MSTextLayer" font-family="Helvetica" font-size="20" font-weight="normal">
            <tspan x="229" y="330">because</tspan>
        </text>
        <path d="M82,389.5 L82,566.841476" id="Line" stroke="#CDA900" stroke-width="4" stroke-linecap="square" sketch:type="MSShapeGroup"></path>
        <path d="M83.5,568 L455.843933,568" id="Line" stroke="#CDA900" stroke-width="4" stroke-linecap="square" sketch:type="MSShapeGroup"></path>
        <path d="M84.4375,567.109375 C84.4375,567.109375 414.226551,578.957029 454.773438,386.996094" id="Path-6" stroke="#CDA900" stroke-width="4" sketch:type="MSShapeGroup"></path>
        <path d="M163.212525,418.439146 L131.347588,487.960346 L128.682524,487.960346 L160.547461,418.439146 L163.212525,418.439146 Z M170.611061,418.439146 L154.636273,474.756524 L180.449258,418.439146 L182.955214,418.439146 L151.090277,487.960346 L148.133514,487.960346 L163.940762,431.690294 L138.149468,487.960346 L135.630254,487.960346 L167.49519,418.439146 L170.611061,418.439146 Z M200.868157,418.439146 L196.963672,426.957741 L186.091271,426.957741 L176.416825,448.064927 L185.976582,448.064927 L182.180555,456.346894 L172.620798,456.346894 L158.130819,487.960346 L155.492273,487.960346 L187.35721,418.439146 L200.868157,418.439146 Z M206.292234,451.992945 C201.534523,462.373063 196.841386,471.001998 192.212681,477.880009 C186.778111,485.956939 182.45654,489.995344 179.24784,489.995344 C176.251286,489.995344 175.515244,486.46174 177.039695,479.394426 C178.634083,472.579516 181.817316,463.966356 186.589488,453.554688 C190.898904,444.152636 195.240542,436.107377 199.614532,429.418669 C205.227443,420.83693 209.67796,416.546125 212.966215,416.546125 C216.404739,416.546125 217.142833,420.48988 215.180517,428.377507 C213.651149,434.529857 210.688417,442.401591 206.292234,451.992945 Z M203.522319,452.134922 C207.267751,443.96334 209.683991,437.385158 210.771111,432.400177 C211.858232,427.415197 211.36317,424.922744 209.285913,424.922744 C207.270531,424.922744 204.494862,427.391534 200.958822,432.329189 C197.422783,437.266844 193.449501,444.547014 189.038857,454.16992 C185.510341,461.868244 183.080833,468.359664 181.75026,473.644374 C180.419686,478.929085 180.978647,481.5714 183.427159,481.5714 C185.75192,481.5714 188.79653,478.597809 192.561081,472.650538 C196.325633,466.703267 199.979342,459.864797 203.522319,452.134922 Z M231.880832,439.499006 L229.268804,439.499006 C231.278828,434.419374 232.315845,430.720132 232.379886,428.40117 C232.443928,426.082208 231.715771,424.922744 230.195395,424.922744 C228.392159,424.922744 225.767756,427.336321 222.322108,432.163549 C218.87646,436.990777 214.962833,444.184186 210.581112,453.74399 C206.792296,462.010223 204.216764,468.738269 202.854439,473.928327 C201.492114,479.118386 201.960065,481.713377 204.258308,481.713377 C206.017347,481.713377 208.308733,479.891362 211.132535,476.247278 C213.956336,472.603194 217.246932,466.711225 221.004421,458.571194 L214.905269,458.571194 L218.484381,450.762482 L227.036452,450.762482 L209.986867,487.960346 L208.289712,487.960346 L211.752988,479.015822 C209.255024,482.517928 207.35042,484.947281 206.039119,486.303953 C203.811034,488.638691 201.804244,489.806042 200.018686,489.806042 C197.711604,489.806042 196.949137,487.140064 197.731261,481.808028 C198.984945,475.11932 202.287046,465.938259 207.637663,454.264571 C212.973819,442.622433 218.102023,433.362497 223.022428,426.484486 C227.709827,419.92198 231.388221,416.640776 234.057718,416.640776 C235.887472,416.640776 236.891264,417.902778 237.069122,420.426819 C237.34192,424.055127 235.612507,430.412459 231.880832,439.499006 Z M255.269937,418.439146 C256.754956,418.439146 257.624901,419.212122 257.8798,420.758097 C258.350208,423.723845 256.756104,429.197776 253.097438,437.180055 C251.188569,441.344723 249.385921,444.752127 247.689439,447.402369 C245.992958,450.052612 244.342852,452.18224 242.739074,453.791316 C242.993123,454.895583 242.900263,456.346885 242.460492,458.145264 C242.020722,459.943643 240.897439,462.862021 239.090612,466.900487 L234.910183,476.223616 C233.721966,478.873858 232.880034,480.845736 232.384361,482.139307 C231.531192,484.347842 231.163307,485.767594 231.280696,486.398604 L230.564874,487.960346 L227.329672,487.960346 C227.51604,487.360887 227.799618,486.587911 228.180415,485.641396 C228.561213,484.69488 229.355749,482.864978 230.564049,480.151634 L235.719379,468.55688 C237.739905,464.013607 238.662483,460.969028 238.487139,459.423053 C238.373744,458.57119 237.777852,458.145264 236.699446,458.145264 L230.693107,458.145264 L217.027409,487.960346 L214.388863,487.960346 L246.2538,418.439146 L255.269937,418.439146 Z M244.544665,447.638997 C246.074899,445.872168 247.89565,442.685615 250.006975,438.07924 C252.277372,433.12581 253.320852,429.749957 253.137445,427.951577 C253.032076,427.005062 252.52859,426.531812 251.626972,426.531812 L245.183085,426.531812 L234.29391,450.289226 L240.393062,450.289226 C241.630577,450.289226 243.014431,449.405825 244.544665,447.638997 Z M274.190566,418.439146 L249.39269,487.960346 L246.502223,487.960346 L254.070925,467.137114 L246.367431,467.137114 L234.714949,487.960346 L232.010108,487.960346 L271.207286,418.439146 L274.190566,418.439146 Z M267.857459,428.756111 L250.637232,459.470379 L256.736384,459.470379 L267.857459,428.756111 Z M292.673648,418.439146 C294.406169,418.439146 295.003807,420.182286 294.46658,423.668617 C293.929352,427.154949 292.214651,432.053092 289.322426,438.363194 C286.835112,443.789881 284.19669,448.514499 281.407081,452.537189 C278.617472,456.559879 276.24153,458.571194 274.279184,458.571194 L268.153515,458.571194 L254.683041,487.960346 L252.044495,487.960346 L283.909432,418.439146 L292.673648,418.439146 Z M288.089291,426.531812 L282.838717,426.531812 L271.797701,450.620505 L277.048275,450.620505 C278.232754,450.620505 279.606159,449.721329 281.168533,447.92295 C282.730907,446.124571 284.553268,442.953792 286.63567,438.410519 C288.978373,433.299337 290.038717,429.828833 289.816736,427.998903 C289.681631,427.020837 289.105821,426.531812 288.089291,426.531812 Z M304.500698,418.439146 L291.333907,447.165742 L301.463802,447.165742 L314.630593,418.439146 L317.295657,418.439146 L285.430721,487.960346 L282.765657,487.960346 L297.667775,455.447709 L287.537879,455.447709 L272.635761,487.960346 L269.970697,487.960346 L301.835634,418.439146 L304.500698,418.439146 Z M324.641157,418.439146 L292.776221,487.960346 L290.111156,487.960346 L321.976093,418.439146 L324.641157,418.439146 Z M335.573622,439.309704 L333.001371,439.309704 C334.763151,434.829532 335.808822,431.280153 336.138416,428.66146 C336.468009,426.042768 335.846109,424.733442 334.272697,424.733442 C332.354548,424.733442 329.702823,427.139132 326.317442,431.950585 C322.93206,436.762037 318.961802,444.136858 314.406546,454.075269 C310.675575,462.2153 308.182195,468.817145 306.926331,473.881002 C305.670467,478.944859 306.098836,481.476749 308.211451,481.476749 C310.156118,481.476749 312.858641,478.810771 316.319102,473.478735 C318.145346,470.67074 320.239459,466.979385 322.601504,462.404562 L325.173755,462.404562 C321.588949,469.72428 318.016125,475.860762 314.455177,480.814192 C310.175129,486.777238 306.722508,489.758716 304.097207,489.758716 C301.834323,489.758716 301.054602,487.313589 301.758022,482.42326 C302.698332,475.955405 306.263115,465.969819 312.452478,452.466201 C317.152345,442.212285 321.766354,433.804201 326.294645,427.241695 C331.206987,420.111279 335.108341,416.546125 337.998823,416.546125 C340.465014,416.546125 341.315837,418.865053 340.551318,423.502978 C339.786799,428.140903 338.127583,433.409759 335.573622,439.309704 Z M326.513788,482.044655 C327.5038,482.044655 328.636779,481.539855 329.912759,480.530239 C332.382762,478.574107 334.774617,475.072053 337.088398,470.023971 C338.823733,466.23791 339.728669,463.540382 339.803232,461.931306 C339.854494,460.353781 339.431671,458.981354 338.534751,457.813985 L336.872327,455.684337 C335.784934,454.296114 335.26647,452.765937 335.316919,451.09376 C335.409828,448.191114 336.779455,443.852984 339.425841,438.07924 C342.289145,431.83224 345.244532,426.705359 348.292093,422.698444 C351.339653,418.691529 353.972738,416.688102 356.191426,416.688102 C358.233326,416.688102 359.161835,418.447016 358.976981,421.964898 C358.792128,425.48278 356.928241,431.106574 353.385264,438.836449 L350.905826,438.836449 C352.479649,435.113489 353.505505,432.25821 353.983426,430.270528 C354.84207,426.64222 354.307907,424.828093 352.380919,424.828093 C350.825186,424.828093 349.171965,425.995444 347.421208,428.330182 C345.670451,430.664919 344.086502,433.378223 342.669311,436.470172 C341.107509,439.877627 340.362864,442.37008 340.435353,443.947606 C340.494121,444.957222 341.095726,446.219224 342.240186,447.733648 L343.952041,449.957948 C344.777432,451.030665 345.121515,452.497742 344.984299,454.359222 C344.732318,457.608924 343.18916,462.325655 340.354779,468.509555 C336.826264,476.207879 333.51835,481.71336 330.430939,485.026164 C327.343528,488.338967 324.761233,489.995344 322.683975,489.995344 C320.261981,489.995344 319.378223,487.786842 320.032675,483.36977 C320.672666,478.984249 322.726764,473.037068 326.19503,465.528046 L328.674468,465.528046 C326.928703,469.47186 325.721679,472.674189 325.053359,475.135128 C323.817134,479.741503 324.303939,482.044655 326.513788,482.044655 Z M326.513788,482.044655" id="INFOGRAPHICS" fill="#2E2E2E" sketch:type="MSShapeGroup"></path>
        <rect d="M75,627 L75,940 L465,940 L465,627 L75,627 Z M75,627" id="Rectangle-1" fill="#000000" sketch:type="MSShapeGroup" x="75" y="627" width="390" height="313"></rect>
        <path d="M134.976562,656.550781 L327.160156,724.089844 L254.621094,791.074219 L188.027344,873.683594 L363.011719,917.789062 L340.007812,716.714844 L266.734375,791.988281 L119.960938,657.289062 L134.976562,656.550781 Z M134.976562,656.550781" id="Path-23" stroke="#C502C0" stroke-width="4" sketch:type="MSShapeGroup"></path>
        <text id="That" fill="#FAE309" sketch:type="MSTextLayer" font-family="Helvetica" font-size="20" font-weight="normal">
            <tspan x="108" y="660">That</tspan>
        </text>
        <text id="Don't" fill="#FAE309" sketch:type="MSTextLayer" font-family="Helvetica" font-size="29" font-weight="normal">
            <tspan x="294" y="729">Don't</tspan>
        </text>
        <text id="Help" fill="#FAE309" sketch:type="MSTextLayer" font-family="Helvetica" font-size="20" font-weight="normal">
            <tspan x="234" y="797">Help</tspan>
        </text>
        <text id="Are" fill="#FAE309" sketch:type="MSTextLayer" font-family="Helvetica" font-size="14" font-weight="normal">
            <tspan x="180" y="876">Are</tspan>
        </text>
        <text id="Awesome" fill="#FAE309" sketch:type="MSTextLayer" font-family="Helvetica" font-size="20" font-weight="normal">
            <tspan x="341" y="925">Awesome</tspan>
        </text>
        <path d="M144,1067.71484 C144,1067.71484 128.976561,1083.81641 128.976562,1136.78125 M129.539062,1014.58594 C129.539062,1014.58594 262.160158,1021.3086 319.640625,1005.59766 C377.121094,989.886719 396.304688,995.097656 396.304688,995.097656 C396.304688,995.097656 418.56641,1026.36719 397.164062,1048.50781 C375.761719,1070.64844 468.914062,1207.43359 468.914062,1207.43359 C468.914062,1207.43359 240.792971,1235.56641 199.59375,1270.125 C158.394531,1304.68359 111.847656,1057.57812 111.847656,1057.57812 L129.539062,1014.58594 Z M129.539062,1014.58594" id="Path-24" stroke="#979797" fill="#636363" sketch:type="MSShapeGroup"></path>
        <ellipse d="M129.5,1081 C140.269553,1081 149,1066.44926 149,1048.5 C149,1030.55074 140.269553,1016 129.5,1016 C118.730447,1016 110,1030.55074 110,1048.5 C110,1066.44926 118.730447,1081 129.5,1081 Z M129.5,1081" id="Oval-4" stroke="#979797" fill="#989898" sketch:type="MSShapeGroup" cx="129.5" cy="1048.5" rx="19.5" ry="32.5"></ellipse>
        <path d="M175.170103,1033.43196 L184.973367,1065.28213 L182.755619,1065.51184 L172.951806,1033.5494 L167.51587,1033.83705 L166.189536,1029.4741 L179.280125,1028.87075 L180.606015,1033.14404 L175.170103,1033.43196 Z M187.105481,1041.87768 C187.164959,1040.53686 187.298051,1039.58865 187.504761,1039.03208 C187.853824,1038.0727 188.504201,1037.56481 189.455908,1037.50702 C191.161658,1037.40342 192.72984,1038.63781 194.160467,1041.20615 C194.93925,1042.60636 195.72748,1044.56789 196.525174,1047.09182 L201.727244,1063.54679 L199.696139,1063.75717 L194.584693,1047.53622 C193.988921,1045.64506 193.442384,1044.26657 192.94507,1043.40032 C192.142035,1042.01344 191.246385,1041.35249 190.258104,1041.41872 C189.438196,1041.47367 188.889576,1042.14453 188.612233,1043.43328 C188.334897,1044.72464 188.736537,1047.10171 189.817128,1050.56226 L194.118833,1064.33487 L192.142622,1064.53956 L180.977396,1028.66891 L182.954153,1028.57806 L187.105481,1041.87768 Z M209.145757,1045.47365 C209.636364,1046.62191 210.290458,1048.4622 211.108046,1050.99474 L202.48884,1051.72689 C203.348216,1054.30804 204.289981,1056.35469 205.314164,1057.86522 C206.338327,1059.37295 207.403005,1060.07105 208.508248,1059.96165 C209.540295,1059.8595 210.129058,1059.04717 210.274557,1057.52679 C210.353376,1056.64584 210.286824,1055.64201 210.074897,1054.5149 L212.018286,1054.33905 C212.264794,1055.26617 212.426417,1056.31008 212.503161,1057.47151 C212.579905,1058.63397 212.555017,1059.59341 212.428498,1060.34971 C212.232019,1061.66459 211.761618,1062.58853 211.017282,1063.12069 C210.622273,1063.42218 210.124685,1063.6046 209.524504,1063.66765 C208.060647,1063.82145 206.45288,1062.79964 204.701114,1060.59624 C202.949292,1058.38492 201.412123,1055.19233 200.089554,1051.02378 C198.787113,1046.91816 198.241902,1043.54734 198.453965,1040.91795 C198.666042,1038.29687 199.599321,1036.93912 201.253816,1036.83842 C202.088384,1036.78762 203.03235,1037.15924 204.085732,1037.95163 C205.139102,1038.74182 206.085268,1039.78894 206.92426,1041.09328 C207.728405,1042.33415 208.468897,1043.79404 209.145757,1045.47365 Z M202.321858,1040.56155 C201.414108,1040.62237 200.878685,1041.38132 200.715577,1042.84051 C200.552475,1044.30248 200.800944,1046.13002 201.460974,1048.32116 L207.994172,1047.80266 C207.32312,1045.97334 206.664533,1044.52006 206.018395,1043.4424 C204.82049,1041.43793 203.588316,1040.4767 202.321858,1040.56155 Z M232.27868,1053.83707 L223.27334,1026.83397 L225.348874,1026.73754 L236.464617,1059.9485 L234.016314,1060.20212 L216.750323,1033.68591 L225.749172,1061.0585 L223.663174,1061.27458 L212.544208,1027.332 L215.124917,1027.21228 L232.27868,1053.83707 Z M244.139864,1042.82046 C244.630176,1043.90157 245.283801,1045.63481 246.100747,1048.0204 L237.481611,1048.75331 C238.340329,1051.18646 239.281564,1053.11438 240.30535,1054.53547 C241.329115,1055.95377 242.393594,1056.60716 243.498834,1056.49773 C244.530879,1056.39554 245.119823,1055.62537 245.265689,1054.18933 C245.34472,1053.35736 245.278415,1052.41021 245.066769,1051.3475 L247.010146,1051.17152 C247.256422,1052.04513 247.417787,1053.02943 247.494246,1054.12511 C247.570705,1055.22183 247.545585,1056.12755 247.418885,1056.84214 C247.222091,1058.08448 246.751478,1058.95945 246.007032,1059.46622 C245.611959,1059.7532 245.11434,1059.92836 244.514159,1059.99142 C243.050303,1060.14522 241.442828,1059.18944 239.691647,1057.11813 C237.940415,1055.03894 236.404073,1052.03139 235.082568,1048.10079 C233.781178,1044.22954 233.236816,1041.04896 233.449522,1038.56568 C233.66224,1036.09069 234.595824,1034.80581 236.250291,1034.70479 C237.084844,1034.65383 238.028688,1035.00101 239.081841,1035.74469 C240.134983,1036.48617 241.080863,1037.47033 241.919507,1038.69746 C242.723324,1039.86476 243.463436,1041.23887 244.139864,1042.82046 Z M237.317381,1038.21409 C236.409645,1038.27505 235.874051,1038.99349 235.710589,1040.37149 C235.547131,1041.75226 235.795142,1043.47654 236.454612,1045.54235 L242.987743,1045.02313 C242.317159,1043.29999 241.658948,1041.93158 241.013094,1040.91749 C239.815719,1039.03111 238.58382,1038.12903 237.317381,1038.21409 Z M249.510054,1034.4288 L251.728175,1034.29112 L260.3791,1052.27857 L256.438927,1033.99863 L258.415463,1033.87587 L263.09951,1057.18929 L261.04645,1057.40198 L252.383637,1039.62782 L256.336489,1057.88991 L254.283428,1058.1026 L242.789794,1034.84577 L244.953017,1034.71158 L253.598749,1053.03291 L249.510054,1034.4288 Z M274.656579,1039.45065 L273.952911,1024.47027 L276.511553,1024.35044 L277.047289,1042.93632 L281.522151,1055.2807 L279.337344,1055.50705 L274.862291,1043.11268 L262.13698,1025.02303 L264.68466,1024.90393 L274.656579,1039.45065 Z M294.955148,1051.14941 C294.884269,1053.53046 293.879043,1054.82581 291.939435,1055.02969 C290.321874,1055.19971 288.660761,1054.30983 286.95601,1052.35437 C285.251214,1050.39139 283.763929,1047.67124 282.494108,1044.19906 C281.133526,1040.47822 280.551499,1037.47914 280.748063,1035.20823 C280.944637,1032.94535 281.88843,1031.76533 283.579462,1031.6621 C285.0948,1031.56958 286.723548,1032.42785 288.465721,1034.23123 C290.20785,1036.02701 291.754015,1038.73117 293.104251,1042.34903 C294.409088,1045.84478 295.026032,1048.77612 294.955148,1051.14941 Z M288.706736,1037.69812 C287.404671,1035.72834 286.072858,1034.7875 284.71128,1034.87889 C283.503428,1034.95995 282.942471,1035.88184 283.028395,1037.64715 C283.114318,1039.41587 283.60575,1041.5234 284.502685,1043.96702 C285.364322,1046.31426 286.356806,1048.24488 287.480168,1049.75661 C288.603508,1051.265 289.761686,1051.95881 290.954754,1051.84054 C292.264934,1051.71066 292.82207,1050.70177 292.626178,1048.81626 C292.430284,1046.93397 291.91418,1044.86947 291.077838,1042.62008 C290.322088,1040.58728 289.531727,1038.94704 288.706736,1037.69812 Z M294.907739,1035.40951 C294.789407,1034.67584 294.835144,1033.77049 295.044956,1032.69487 C295.254771,1031.6216 295.751316,1031.0618 296.534602,1031.01372 C296.571204,1031.01147 296.635945,1031.01431 296.728828,1031.02222 C296.821712,1031.03013 296.981854,1031.04751 297.20926,1031.07434 L298.645041,1034.86345 C298.512804,1034.83163 298.394757,1034.81247 298.290896,1034.80596 C298.187036,1034.79945 298.076545,1034.80022 297.959421,1034.80827 C296.963869,1034.87668 296.419323,1035.51355 296.325769,1036.72064 C296.232217,1037.93007 296.472596,1039.29874 297.046904,1040.82484 L301.70141,1053.19002 L299.725204,1053.39477 L291.63197,1031.80973 L293.509647,1031.69276 L294.907739,1035.40951 Z M304.359483,1040.24082 L305.994511,1030.91452 L308.520024,1030.75699 L307.047816,1038.93082 L316.863295,1051.61909 L314.338144,1051.88072 L306.591639,1041.60809 L305.976333,1044.47707 L309.01337,1052.43243 L307.114017,1052.62922 L296.014194,1023.43551 L297.913931,1023.34624 L304.359483,1040.24082 Z M321.044255,1025.63989 L330.817494,1050.17323 L328.599754,1050.40303 L318.826147,1025.7594 L313.390672,1026.05212 L312.068545,1022.68028 L325.157877,1022.06316 L326.479705,1025.34691 L321.044255,1025.63989 Z M339.172445,1049.30751 L337.163305,1049.5157 L329.113151,1029.56719 L331.122557,1029.44122 L339.172445,1049.30751 Z M329.619596,1025.73025 L327.61014,1025.84086 L326.069294,1022.02014 L328.078803,1021.92527 L329.619596,1025.73025 Z M337.173806,1031.84429 C337.244578,1030.84128 337.379668,1030.10698 337.579081,1029.64052 C337.923484,1028.85129 338.509273,1028.43195 339.336464,1028.38097 C340.273458,1028.32322 341.186008,1028.66017 342.074133,1029.39042 C342.577446,1029.80713 343.137044,1030.43155 343.752941,1031.26341 C343.759236,1030.19097 343.954396,1029.38497 344.338427,1028.8449 C344.72246,1028.30607 345.284141,1028.01433 346.023486,1027.96874 C347.604659,1027.87124 349.073326,1028.73901 350.42951,1030.56855 C351.15975,1031.55172 351.882211,1032.89102 352.596911,1034.58739 L357.979312,1047.35873 L355.926257,1047.57147 L350.309643,1034.18616 C349.771082,1032.90227 349.205328,1032.03412 348.612368,1031.58112 C348.019405,1031.12732 347.441107,1030.91926 346.877459,1030.95756 C346.101528,1031.01028 345.612272,1031.48483 345.409678,1032.3827 C345.207088,1033.28255 345.523581,1034.73942 346.359151,1036.75167 L351.062602,1048.07545 L349.053462,1048.28364 L343.776025,1035.52416 C343.227343,1034.19719 342.731999,1033.23616 342.289983,1032.64073 C341.612312,1031.74764 340.863557,1031.32847 340.043703,1031.38409 C339.29705,1031.43474 338.816968,1031.96518 338.603445,1032.97723 C338.389926,1033.9917 338.804199,1035.77285 339.84625,1038.31866 L344.134912,1048.79331 L342.158708,1048.99808 L334.071452,1029.16129 L336.025953,1029.03909 L337.173806,1031.84429 Z M365.402767,1033.59176 C365.892257,1034.44237 366.544579,1035.80815 367.359742,1037.68934 L358.740847,1038.42489 C359.597727,1040.35003 360.537487,1041.87045 361.56016,1042.98453 C362.582818,1044.09588 363.646741,1044.59576 364.75197,1044.48622 C365.784005,1044.38393 366.373455,1043.75846 366.520338,1042.61193 C366.599959,1041.94804 366.534338,1041.19545 366.323471,1040.35379 L368.266808,1040.17738 C368.512439,1040.86733 368.673087,1041.64698 368.748757,1042.51702 C368.824427,1043.38809 368.798662,1044.10941 368.671462,1044.68084 C368.473796,1045.67418 368.002595,1046.38108 367.257843,1046.8007 C366.862595,1047.03786 366.364889,1047.18812 365.764708,1047.25119 C364.300853,1047.40501 362.69419,1046.67586 360.944643,1045.05793 C359.195057,1043.43229 357.661026,1041.05989 356.342494,1037.94605 C355.044044,1034.87922 354.502055,1032.35167 354.71655,1030.36989 C354.931052,1028.39632 355.865476,1027.36158 357.519843,1027.25947 C358.354346,1027.20796 359.297839,1027.47124 360.350345,1028.04769 C361.402842,1028.62198 362.347915,1029.39004 363.185591,1030.35214 C363.988488,1031.26693 364.727539,1032.34657 365.402767,1033.59176 Z M358.584276,1030.03479 C357.676586,1030.09627 357.140525,1030.67564 356.976077,1031.77496 C356.811632,1032.87703 357.058365,1034.24686 357.716272,1035.8825 L364.249171,1035.36073 C363.57989,1034.00206 362.922727,1032.92498 362.277667,1032.12911 C361.081772,1030.64804 359.850648,1029.94901 358.584276,1030.03479 Z M376.815865,1043.4158 C377.547804,1043.34306 378.082481,1043.03105 378.419913,1042.48068 C378.757348,1041.93153 378.697163,1041.14019 378.23935,1040.10567 C377.892214,1039.32121 377.404846,1038.74431 376.777232,1038.37434 C376.381083,1038.14896 375.689187,1037.90764 374.701523,1037.64971 L372.859772,1037.1663 C371.685905,1036.86091 370.755429,1036.4857 370.068318,1036.0412 C368.851911,1035.26794 367.919161,1034.13439 367.270044,1032.64281 C366.505176,1030.88512 366.287002,1029.43558 366.61553,1028.2971 C366.944062,1027.16239 367.785433,1026.55472 369.139664,1026.47126 C370.911143,1026.36206 372.545741,1027.091 374.043484,1028.65375 C374.986763,1029.64163 375.7127,1030.72462 376.221322,1031.9045 L374.35476,1032.04354 C374.01124,1031.3519 373.574618,1030.73138 373.04488,1030.18152 C372.233793,1029.4035 371.268278,1029.05168 370.148312,1029.1273 C369.401667,1029.17772 368.934324,1029.43994 368.746268,1029.91454 C368.558213,1030.3899 368.625206,1030.99626 368.947247,1031.73308 C369.299476,1032.53893 369.833784,1033.16434 370.550187,1033.60855 C370.968772,1033.87304 371.51133,1034.09182 372.177875,1034.26475 L373.703321,1034.65863 C375.35983,1035.08024 376.5403,1035.52 377.244773,1035.97965 C378.360485,1036.69732 379.290613,1037.89283 380.035183,1039.56816 C380.754584,1041.18672 380.978793,1042.62357 380.707829,1043.88195 C380.436869,1045.14446 379.488966,1045.86271 377.864088,1046.03364 C376.114782,1046.21765 374.603085,1045.72334 373.328936,1044.54758 C372.054768,1043.3677 370.989563,1041.85363 370.133289,1040.00793 L372.032708,1039.83549 C372.544087,1040.86665 373.055929,1041.6456 373.568249,1042.17212 C374.503683,1043.12403 375.586208,1043.53802 376.815865,1043.4158 Z M376.815865,1043.4158" id="The-New-York-Times" fill="#A4A4A4" sketch:type="MSShapeGroup"></path>
        <text id="SO" fill="#FF0000" sketch:type="MSTextLayer" font-family="Helvetica" font-size="26" font-weight="normal">
            <tspan x="257" y="985">SO</tspan>
        </text>
        <text id="Ha(ve/d)-a-nice-birt" fill="#00FF21" sketch:type="MSTextLayer" transform="translate(283.859375, 1150.985923) rotate(-14.000000) translate(-283.859375, -1150.985923) " font-family="Helvetica" font-size="23" font-weight="normal">
            <tspan x="158.359375" y="1159.48592">Ha(ve/d) a nice birthday!</tspan>
        </text>
        <text id="You-see,-I-wished-yo" fill="#363636" sketch:type="MSTextLayer" font-family="Helvetica" font-size="11" font-weight="normal" sketch:alignment="middle">
            <tspan x="36.5166016" y="1298.51184">You see, I wished you an overly good happy birthday, and the happiness happened to be a bit too </tspan>
            <tspan x="135.411865" y="1311.51184">long, so it barely fit into a 48 hour timespan. Again, sorry.</tspan>
        </text>
    </g>
</svg>
