<?xml version="1.0" encoding="UTF-8" standalone="no"?>
<svg width="184px" height="184px" viewBox="0 0 184 184" version="1.1" xmlns="http://www.w3.org/2000/svg" xmlns:xlink="http://www.w3.org/1999/xlink" xmlns:sketch="http://www.bohemiancoding.com/sketch/ns">
    <title>penis</title>
    <description>Created with Sketch (http://www.bohemiancoding.com/sketch)</description>
    <defs>
        <radialGradient cx="71.3708105%" cy="21.1298291%" fx="71.3708105%" fy="21.1298291%" r="81.1554849%" id="radialGradient-1">
            <stop stop-color="#D8A76A" offset="0%"></stop>
            <stop stop-color="#D6A05C" offset="100%"></stop>
        </radialGradient>
        <linearGradient x1="50%" y1="100%" x2="0%" y2="0%" id="linearGradient-2">
            <stop stop-color="#4E4E4E" offset="0%"></stop>
            <stop stop-color="#000000" offset="100%"></stop>
        </linearGradient>
        <linearGradient x1="52.3515117%" y1="52.1491289%" x2="40.7681716%" y2="60.763076%" id="linearGradient-3">
            <stop stop-color="#EBB97A" offset="-0.609319376%"></stop>
            <stop stop-color="#EBB97A" offset="0%"></stop>
            <stop stop-color="#E6AE66" offset="100%"></stop>
        </linearGradient>
        <filter x="-20%" y="-20%" width="140%" height="140%" filterUnits="objectBoundingBox" id="filter-4">
            <feOffset dx="1" dy="-2" in="SourceAlpha" result="shadowOffsetOuter1"></feOffset>
            <feGaussianBlur stdDeviation="2" in="shadowOffsetOuter1" result="shadowBlurOuter1"></feGaussianBlur>
            <feColorMatrix values="0 0 0 0 0   0 0 0 0 0   0 0 0 0 0  0 0 0 0.7 0" in="shadowBlurOuter1" type="matrix" result="shadowMatrixOuter1"></feColorMatrix>
            <feMerge>
                <feMergeNode in="shadowMatrixOuter1"></feMergeNode>
                <feMergeNode in="SourceGraphic"></feMergeNode>
            </feMerge>
        </filter>
        <radialGradient cx="71.9928924%" cy="24.2830603%" fx="71.9928924%" fy="24.2830603%" r="78.4641981%" id="radialGradient-5">
            <stop stop-color="#FBC581" offset="0%"></stop>
            <stop stop-color="#FAB968" offset="100%"></stop>
        </radialGradient>
        <filter x="-20%" y="-20%" width="140%" height="140%" filterUnits="objectBoundingBox" id="filter-6">
            <feOffset dx="3" dy="-1" in="SourceAlpha" result="shadowOffsetOuter1"></feOffset>
            <feGaussianBlur stdDeviation="2" in="shadowOffsetOuter1" result="shadowBlurOuter1"></feGaussianBlur>
            <feColorMatrix values="0 0 0 0 0   0 0 0 0 0   0 0 0 0 0  0 0 0 0.7 0" in="shadowBlurOuter1" type="matrix" result="shadowMatrixOuter1"></feColorMatrix>
            <feMerge>
                <feMergeNode in="shadowMatrixOuter1"></feMergeNode>
                <feMergeNode in="SourceGraphic"></feMergeNode>
            </feMerge>
        </filter>
        <linearGradient x1="0%" y1="0%" x2="100%" y2="100%" id="linearGradient-7">
            <stop stop-color="#4E4E4E" offset="0%"></stop>
            <stop stop-color="#000000" offset="100%"></stop>
        </linearGradient>
        <linearGradient x1="100%" y1="50%" x2="0%" y2="0%" id="linearGradient-8">
            <stop stop-color="#4E4E4E" offset="0%"></stop>
            <stop stop-color="#000000" offset="100%"></stop>
        </linearGradient>
        <linearGradient x1="100%" y1="0%" x2="50%" y2="100%" id="linearGradient-9">
            <stop stop-color="#4E4E4E" offset="0%"></stop>
            <stop stop-color="#000000" offset="100%"></stop>
        </linearGradient>
        <radialGradient cx="27.7550196%" cy="27.8189506%" fx="27.7550196%" fy="27.8189506%" r="57.1123302%" id="radialGradient-10">
            <stop stop-color="#EA987E" offset="0%"></stop>
            <stop stop-color="#E6A181" offset="36.1726858%"></stop>
            <stop stop-color="#AB5954" offset="100%"></stop>
        </radialGradient>
        <filter x="-20%" y="-20%" width="140%" height="140%" filterUnits="objectBoundingBox" id="filter-11">
            <feOffset dx="1" dy="2" in="SourceAlpha" result="shadowOffsetOuter1"></feOffset>
            <feGaussianBlur stdDeviation="2" in="shadowOffsetOuter1" result="shadowBlurOuter1"></feGaussianBlur>
            <feColorMatrix values="0 0 0 0 0   0 0 0 0 0   0 0 0 0 0  0 0 0 0.7 0" in="shadowBlurOuter1" type="matrix" result="shadowMatrixOuter1"></feColorMatrix>
            <feMerge>
                <feMergeNode in="shadowMatrixOuter1"></feMergeNode>
                <feMergeNode in="SourceGraphic"></feMergeNode>
            </feMerge>
        </filter>
    </defs>
    <g id="Page-1" stroke="none" stroke-width="1" fill="none" fill-rule="evenodd" sketch:type="MSPage">
        <rect id="Rectangle-1" fill="#000000" sketch:type="MSShapeGroup" x="0" y="0" width="184" height="184"></rect>
        <g id="Penis" sketch:type="MSLayerGroup" transform="translate(7.000000, -1.000000)">
            <g id="back-ballhair" transform="translate(96.000000, 86.000000)" sketch:type="MSShapeGroup">
                <circle id="ball-back" fill="url(#radialGradient-1)" cx="35" cy="35" r="35"></circle>
                <g id="back-hairs" transform="translate(32.000000, 5.000000)" stroke="url(#linearGradient-2)" stroke-width="2">
                    <path d="M18.5515344,64.3365021 C18.5515344,64.3365021 14.5024444,63.0228472 15.2038217,59.86221 C15.905199,56.7015729 13.016609,52.9992142 13.016609,52.9992142" id="Path-3"></path>
                    <path d="M3.39333679,7.01909571 C4.03915502,2.90259718 2.0541575,6.51225376 0.909888035,4.06732153 C-1.5123156,-1.10814226 1.98945018,-0.350205679 2.42521597,2.07973242" id="Path-3"></path>
                    <path d="M36.3393449,20.0457201 C36.3393449,20.0457201 31.937733,18.4169078 31.9377331,14.7679832 C31.9377331,11.1190586 31.4265712,12.5849066 28.8714503,11.1190586" id="Path-3" transform="translate(32.371450, 15.712968) scale(-1, 1) rotate(168.000000) translate(-32.371450, -15.712968) "></path>
                </g>
            </g>
            <path d="M83.76693,134.117743 C83.76693,134.117743 77.4514864,117.188236 24.2962189,67.7588235 C-28.8590523,18.3294144 43.4692357,-17.5203663 54.6334725,27.7613318 C65.7977102,73.0430298 85.2930534,72.313103 117.998502,109.245295 C150.703952,146.177484 83.76693,134.117743 83.76693,134.117743 Z" id="stick" fill="url(#linearGradient-3)" filter="url(#filter-4)" sketch:type="MSShapeGroup"></path>
            <g id="front-ballhair" transform="translate(52.000000, 110.000000)" sketch:type="MSShapeGroup">
                <circle id="ball-front" fill="url(#radialGradient-5)" filter="url(#filter-6)" cx="35" cy="35" r="35"></circle>
                <g id="front-hairs" transform="translate(4.000000, 6.000000)" stroke-width="2">
                    <path d="M14.5262379,11.5984682 C10.8069488,9.48853119 8.64330727,11.9223954 7.7202895,5.86995419 C6.79727213,-0.182487079 4.01660896,-0.000785829935 4.01660896,-0.000785829935" id="Path-3" stroke="url(#linearGradient-7)"></path>
                    <path d="M13.5891172,49.9077863 C13.5891172,49.9077863 3.34049029,45.6666138 4.81340475,49.9077864 C6.54215319,54.885618 2.18497546,44.9989788 0.581247519,45.6666138" id="Path-3" stroke="url(#linearGradient-8)" transform="translate(6.608993, 48.608945) rotate(-207.000000) translate(-6.608993, -48.608945) "></path>
                    <path d="M49.2805588,23.5607035 C49.2805588,23.5607035 50.4478963,26.2217803 49.2805588,28.6721309 C48.1132214,31.1224816 46.9079921,25.2461269 44.016609,25.9992142" id="Path-3" stroke="url(#linearGradient-9)"></path>
                </g>
            </g>
            <path d="M28.6653197,49.8286849 C20.4693162,54.9034101 14.7005378,51.7447462 14.148133,52.2924961 C11.9681961,54.4540638 -7.66447272,22.4672728 20.3126703,9.129077 C46.4757978,-3.34428046 55.1578524,24.0293259 55.1578524,24.0293259 C46.6231768,21.3458189 36.8613227,44.7539588 28.6653197,49.8286849 Z" id="head" fill="url(#radialGradient-10)" filter="url(#filter-11)" sketch:type="MSShapeGroup" transform="translate(30.596951, 29.021733) rotate(16.000000) translate(-30.596951, -29.021733) "></path>
            <g id="tip" transform="translate(21.101771, 17.031646) rotate(-8.000000) translate(-21.101771, -17.031646) translate(12.301791, 11.167653)" sketch:type="MSShapeGroup">
                <ellipse fill="#FF9AB1" transform="translate(8.984600, 5.761112) rotate(-24.000000) translate(-8.984600, -5.761112) " cx="8.9846" cy="5.76111188" rx="8.79997988" ry="2.66545167"></ellipse>
                <ellipse id="Oval-4" fill="#000000" transform="translate(8.984600, 5.761112) rotate(-22.000000) translate(-8.984600, -5.761112) " cx="8.9846" cy="5.76111188" rx="4.39998994" ry="1.06618067"></ellipse>
            </g>
        </g>
    </g>
</svg>